<?xml version="1.0" encoding="UTF-8"?>
<!DOCTYPE svg PUBLIC "-//W3C//DTD SVG 1.1//EN" "http://www.w3.org/Graphics/SVG/1.1/DTD/svg11.dtd">
<!-- Creator: CorelDRAW X6 -->
<svg xmlns="http://www.w3.org/2000/svg" xml:space="preserve" width="49.4836mm" height="40.4668mm" version="1.1" style="shape-rendering:geometricPrecision; text-rendering:geometricPrecision; image-rendering:optimizeQuality; fill-rule:evenodd; clip-rule:evenodd"
viewBox="0 0 390 319"
 xmlns:xlink="http://www.w3.org/1999/xlink">
 <defs>
  <style type="text/css">
   <![CDATA[
    .fil0 {fill:#A82682}
    .fil3 {fill:#E31E24}
    .fil2 {fill:#FCD5A6}
    .fil4 {fill:#C02222}
    .fil1 {fill:#FEFEFE;fill-rule:nonzero}
   ]]>
  </style>
 </defs>
 <g id="Layer_x0020_1">
  <metadata id="CorelCorpID_0Corel-Layer"/>
  <path class="fil0" d="M24 0l343 0c13,0 23,11 23,24l0 196c0,14 -10,25 -23,25l-343 0c-13,0 -24,-11 -24,-25l0 -196c0,-13 11,-24 24,-24z"/>
  <path class="fil1" d="M179 187l7 1c-2,5 -5,9 -9,12 -4,3 -8,4 -13,4 -6,0 -11,-1 -14,-5 -3,-3 -5,-8 -5,-15 0,-9 3,-16 8,-21 4,-5 10,-8 17,-8 5,0 9,1 12,4 3,3 5,6 6,11l-6 1c-1,-4 -2,-6 -4,-8 -2,-2 -5,-3 -8,-3 -6,0 -10,3 -14,8 -3,5 -5,10 -5,16 0,5 1,9 4,11 2,3 5,4 9,4 4,0 7,-1 9,-3 3,-2 5,-5 6,-9zm34 12c-2,2 -4,3 -6,4 -2,1 -4,1 -6,1 -4,0 -6,-1 -8,-2 -2,-2 -3,-5 -3,-8 0,-2 0,-3 1,-5 1,-1 2,-2 4,-3 1,-1 3,-2 5,-2 2,-1 4,-1 8,-1 3,0 6,0 8,-1 0,-2 0,-3 0,-4 0,-1 0,-3 -1,-3 -1,-1 -3,-2 -6,-2 -3,0 -5,1 -6,2 -2,1 -3,2 -4,4l-6 0c2,-4 4,-6 6,-8 3,-2 6,-3 10,-3 4,0 8,1 10,3 2,2 3,4 3,6 0,2 0,4 -1,7l-2 8c0,3 0,5 0,7 0,1 0,3 0,5l-6 0c0,-1 0,-3 0,-5zm2 -13c-1,0 -2,1 -3,1 -1,0 -2,0 -5,0 -3,1 -5,1 -7,2 -1,0 -2,1 -3,2 -1,1 -1,2 -1,3 0,2 0,3 2,4 1,1 2,2 4,2 2,0 4,-1 6,-2 2,-1 3,-2 4,-4 1,-2 2,-5 3,-8zm25 13l-1 5c-1,0 -3,0 -4,0 -2,0 -4,0 -5,-1 -2,-1 -2,-3 -2,-4 0,-1 0,-3 1,-5l4 -20 -5 0 1 -5 5 0 2 -9 7 -4 -3 13 6 0 -1 5 -6 0 -4 19c-1,2 -1,4 -1,4 0,1 0,1 1,2 0,0 1,0 2,0 1,0 2,0 3,0zm28 0c-2,2 -4,3 -6,4 -1,1 -3,1 -6,1 -3,0 -5,-1 -7,-2 -2,-2 -3,-5 -3,-8 0,-2 0,-3 1,-5 1,-1 2,-2 4,-3 1,-1 3,-2 5,-2 1,-1 4,-1 7,-1 4,0 7,0 8,-1 1,-2 1,-3 1,-4 0,-1 0,-3 -1,-3 -2,-1 -4,-2 -6,-2 -3,0 -5,1 -6,2 -2,1 -3,2 -4,4l-6 0c1,-4 3,-6 6,-8 3,-2 6,-3 10,-3 4,0 8,1 10,3 2,2 3,4 3,6 0,2 0,4 -1,7l-2 8c0,3 -1,5 -1,7 0,1 1,3 1,5l-6 0c0,-1 -1,-3 -1,-5zm3 -13c-1,0 -2,1 -3,1 -1,0 -3,0 -5,0 -3,1 -6,1 -7,2 -2,0 -3,1 -3,2 -1,1 -1,2 -1,3 0,2 0,3 1,4 1,1 3,2 5,2 2,0 4,-1 6,-2 2,-1 3,-2 4,-4 1,-2 2,-5 3,-8zm11 18l10 -48 6 0 -10 48 -6 0zm16 -14c0,-6 2,-12 6,-16 3,-4 8,-6 13,-6 4,0 7,2 10,4 3,3 4,6 4,11 0,4 -1,7 -3,11 -1,3 -3,6 -6,8 -3,1 -7,2 -10,2 -3,0 -5,0 -7,-1 -2,-1 -4,-3 -5,-5 -1,-2 -2,-5 -2,-8zm6 0c0,3 1,6 2,7 2,2 4,3 6,3 2,0 3,0 4,-1 1,0 2,-1 3,-2 2,-1 2,-2 3,-4 1,-1 2,-3 2,-4 1,-2 1,-4 1,-6 0,-3 -1,-6 -2,-8 -2,-1 -4,-2 -6,-2 -2,0 -4,0 -5,1 -2,1 -3,2 -5,4 -1,2 -2,4 -2,6 -1,2 -1,4 -1,6zm30 17l6 0c0,2 0,3 0,3 1,1 1,2 2,2 1,0 2,1 4,1 4,0 6,-1 8,-3 1,-1 2,-4 3,-8l0 -3c-3,3 -6,5 -10,5 -3,0 -6,-2 -8,-4 -3,-3 -4,-6 -4,-11 0,-4 1,-8 3,-11 2,-3 4,-6 7,-7 2,-2 5,-3 7,-3 5,0 9,2 11,7l1 -6 6 0 -7 33c-1,4 -2,7 -3,9 -2,2 -3,4 -6,5 -2,1 -4,2 -7,2 -3,0 -5,-1 -7,-2 -2,0 -4,-1 -5,-3 -1,-1 -1,-3 -1,-4 0,-1 0,-2 0,-2zm7 -19c0,3 0,4 1,6 1,1 1,3 3,4 1,0 2,1 4,1 2,0 4,-1 5,-2 2,-2 4,-4 5,-7 1,-2 2,-5 2,-8 0,-3 -1,-5 -2,-6 -2,-2 -4,-3 -6,-3 -2,0 -3,0 -4,1 -2,1 -3,2 -4,4 -1,1 -2,3 -3,5 -1,3 -1,4 -1,5z"/>
  <path class="fil1" d="M75 33l8 0 -4 17c2,0 3,0 4,-1 1,-1 2,-3 4,-6 2,-3 3,-5 4,-6 1,-2 2,-3 4,-3 1,-1 3,-1 6,-1l2 0 -2 6 -1 0c-1,0 -2,0 -3,1 0,0 -1,1 -1,2 -3,4 -4,7 -6,8 -1,1 -2,2 -4,3 3,0 5,3 6,7 0,0 0,0 0,0l3 13 -8 0 -3 -12c0,-1 -1,-1 -1,-3 -1,-2 -3,-2 -5,-2l-4 17 -8 0 9 -40zm53 31l-15 0 -5 9 -9 0 23 -40 9 0 6 40 -7 0 -2 -9zm-1 -7l-2 -16 -9 16 11 0zm27 16l-8 0 7 -33 -12 0 2 -7 31 0 -1 7 -12 0 -7 33zm41 -9l-16 0 -5 9 -8 0 22 -40 10 0 6 40 -8 0 -1 -9zm-1 -7l-2 -16 -9 16 11 0zm27 -24l27 0 -8 40 -9 0 7 -33 -11 0 -4 21c-1,2 -1,5 -2,7 -1,2 -2,3 -4,4 -1,1 -3,2 -5,2 -2,0 -4,-1 -6,-1l2 -7c1,0 2,0 2,0 3,0 4,-2 5,-5 0,-1 0,-1 0,-1l6 -27zm31 24c0,-2 1,-5 1,-7 1,-4 3,-7 5,-9 2,-3 4,-5 7,-6 3,-2 6,-3 10,-3 5,0 9,2 12,5 3,3 4,7 4,12 0,4 -1,8 -3,12 -2,4 -4,7 -8,9 -3,3 -7,4 -11,4 -4,0 -7,-1 -10,-3 -2,-2 -4,-4 -5,-6 -1,-3 -2,-5 -2,-8zm8 0c0,3 1,5 3,7 2,2 4,3 7,3 2,0 4,-1 6,-2 2,-2 4,-4 5,-7 1,-3 2,-6 2,-9 0,-3 -1,-5 -3,-7 -1,-2 -3,-3 -6,-3 -4,0 -7,2 -10,6 -2,4 -4,8 -4,12zm44 -24l29 0 -1 7 -22 0 -7 33 -8 0 9 -40zm-214 62l8 0 -3 17c1,0 3,0 4,-1 0,0 2,-2 4,-5 1,-4 3,-6 4,-7 1,-1 2,-2 4,-3 1,0 3,-1 5,-1l3 0 -2 6 -1 0c-1,0 -2,0 -3,1 0,0 -1,1 -2,2 -2,4 -3,7 -5,8 -1,1 -2,2 -4,3 3,1 5,3 5,7 1,0 1,0 1,1l3 12 -8 0 -4 -12c0,0 0,-1 -1,-3 0,-1 -2,-2 -4,-2l-4 17 -8 0 8 -40zm54 31l-16 0 -4 9 -9 0 23 -40 9 0 6 40 -7 0 -2 -9zm-1 -6l-2 -16 -9 16 11 0zm25 15l-8 0 9 -40 16 0c3,0 5,1 7,1 1,1 3,2 4,4 1,1 1,3 1,5 0,2 0,4 -1,6 -1,2 -2,4 -3,5 -1,1 -2,2 -4,2 -1,1 -3,1 -5,2 -1,0 -4,0 -7,0l-5 0 -4 15zm5 -22l3 0c4,0 7,0 8,-1 2,0 3,-1 4,-2 0,-1 1,-3 1,-4 0,-1 0,-2 -1,-2 0,-1 -1,-2 -2,-2 0,0 -2,0 -5,0l-6 0 -2 11zm40 22l-9 0 7 -33 -11 0 1 -7 31 0 -1 7 -11 0 -7 33zm27 -40l7 0 -5 25 22 -25 7 0 -8 40 -8 0 6 -25 -22 25 -8 0 9 -40zm61 22l-16 0 -4 18 -8 0 9 -40 8 0 -3 16 15 0 3 -16 8 0 -8 40 -8 0 4 -18z"/>
  <g id="_697901936">
   <path class="fil2" d="M167 173c5,-2 11,0 14,4l15 32 0 0c3,6 6,12 9,17 4,9 3,15 -4,18l0 0 5 10 -53 25 -5 -10c-5,2 -12,1 -19,-5 -24,-19 -36,-28 -48,-40 8,-14 18,-11 32,2l-34 -68c-2,-5 0,-11 5,-13 5,-3 10,-1 13,4l21 44c-1,-5 1,-10 6,-12 5,-2 12,-1 14,4l2 4c-1,-5 1,-10 5,-12 6,-2 12,-1 14,4l2 3c-1,-4 1,-9 6,-11z"/>
   <polygon class="fil3" points="147,282 214,249 220,261 153,294 "/>
   <polygon class="fil4" points="154,293 217,262 230,288 167,319 "/>
  </g>
 </g>
</svg>
