<?xml version="1.0" encoding="UTF-8"?>
<!DOCTYPE svg PUBLIC "-//W3C//DTD SVG 1.1//EN" "http://www.w3.org/Graphics/SVG/1.1/DTD/svg11.dtd">
<!-- Creator: CorelDRAW X6 -->
<svg xmlns="http://www.w3.org/2000/svg" xml:space="preserve" width="20.0094mm" height="25.5204mm" version="1.1" style="shape-rendering:geometricPrecision; text-rendering:geometricPrecision; image-rendering:optimizeQuality; fill-rule:evenodd; clip-rule:evenodd"
viewBox="0 0 80 102"
 xmlns:xlink="http://www.w3.org/1999/xlink">
 <defs>
  <style type="text/css">
   <![CDATA[
    .fil0 {fill:#A82682}
    .fil4 {fill:#E31E24}
    .fil1 {fill:#EBECEC}
    .fil3 {fill:#FCD5A6}
    .fil5 {fill:#C02222}
    .fil2 {fill:#EBECEC;fill-rule:nonzero}
   ]]>
  </style>
 </defs>
 <g id="Layer_x0020_1">
  <metadata id="CorelCorpID_0Corel-Layer"/>
  <path class="fil0" d="M30 0c17,0 30,13 30,30 0,17 -13,30 -30,30 -17,0 -30,-13 -30,-30 0,-17 13,-30 30,-30z"/>
  <path class="fil1" d="M30 3c15,0 27,12 27,27 0,15 -12,27 -27,27 -15,0 -27,-12 -27,-27 0,-15 12,-27 27,-27zm0 -1c16,0 28,13 28,28 0,16 -12,28 -28,28 -15,0 -28,-12 -28,-28 0,-15 13,-28 28,-28z"/>
  <path class="fil2" d="M14 47l13 -18 -12 -16 7 0 6 8c1,2 1,3 2,4 1,-2 2,-3 3,-4l5 -8 8 0 -12 16 12 18 -7 0 -7 -10 -2 -3 -9 13 -7 0z"/>
  <g id="_683470528">
   <path class="fil3" d="M54 41c2,-1 5,0 6,2l6 13 0 0c1,3 3,5 4,8 2,3 1,6 -2,7l0 0 2 4 -22 11 -2 -4c-2,0 -5,0 -8,-3 -10,-7 -15,-11 -20,-16 3,-6 8,-5 13,1l-14 -29c-1,-2 0,-5 2,-6 2,-1 5,0 6,2l9 19c-1,-2 0,-4 2,-5 2,-1 5,-1 6,1l1 2c-1,-2 0,-4 2,-5 2,-1 5,0 6,2l0 1c0,-2 1,-4 3,-5z"/>
   <polygon class="fil4" points="46,87 74,73 76,78 48,92 "/>
   <polygon class="fil5" points="49,92 75,79 80,90 54,102 "/>
  </g>
 </g>
</svg>
