<?xml version="1.0" encoding="UTF-8"?>
<!DOCTYPE svg PUBLIC "-//W3C//DTD SVG 1.1//EN" "http://www.w3.org/Graphics/SVG/1.1/DTD/svg11.dtd">
<!-- Creator: CorelDRAW X6 -->
<svg xmlns="http://www.w3.org/2000/svg" xml:space="preserve" width="49.4836mm" height="40.4668mm" version="1.1" style="shape-rendering:geometricPrecision; text-rendering:geometricPrecision; image-rendering:optimizeQuality; fill-rule:evenodd; clip-rule:evenodd"
viewBox="0 0 464 380"
 xmlns:xlink="http://www.w3.org/1999/xlink">
 <defs>
  <style type="text/css">
   <![CDATA[
    .fil0 {fill:#A82682}
    .fil3 {fill:#E31E24}
    .fil2 {fill:#FCD5A6}
    .fil4 {fill:#C02222}
    .fil1 {fill:#FEFEFE;fill-rule:nonzero}
   ]]>
  </style>
 </defs>
 <g id="Layer_x0020_1">
  <metadata id="CorelCorpID_0Corel-Layer"/>
  <path class="fil0" d="M28 0l408 0c16,0 28,13 28,29l0 233c0,16 -12,29 -28,29l-408 0c-15,0 -28,-13 -28,-29l0 -233c0,-16 13,-29 28,-29z"/>
  <path class="fil1" d="M57 220l1 -7 25 0 -5 24c-3,2 -6,3 -10,4 -4,2 -8,2 -12,2 -8,0 -15,-2 -19,-7 -3,-4 -5,-10 -5,-16 0,-7 2,-14 5,-19 3,-6 6,-10 11,-13 5,-2 10,-4 15,-4 4,0 8,1 11,3 3,1 6,3 8,6 1,2 3,5 3,9l-7 1c-1,-4 -3,-7 -5,-9 -3,-2 -6,-3 -10,-3 -4,0 -8,1 -11,3 -4,2 -7,6 -9,10 -2,5 -3,10 -3,16 0,5 1,10 4,13 3,3 7,4 12,4 5,0 10,-2 16,-5l2 -12 -17 0zm60 17c-3,2 -5,4 -7,5 -3,1 -5,1 -8,1 -3,0 -6,-1 -9,-3 -2,-2 -3,-5 -3,-9 0,-2 0,-4 1,-6 1,-2 3,-3 4,-4 2,-1 4,-2 7,-2 1,-1 4,-1 9,-1 4,0 7,-1 9,-2 1,-1 1,-3 1,-4 0,-2 0,-3 -2,-4 -1,-1 -4,-2 -7,-2 -3,0 -5,1 -7,2 -2,1 -3,3 -4,5l-7 0c1,-4 3,-7 7,-10 3,-2 7,-3 12,-3 5,0 9,1 12,4 2,2 3,4 3,7 0,2 0,5 -1,8l-2 10c-1,3 -1,6 -1,8 0,1 0,3 1,5l-8 0c0,-1 0,-3 0,-5zm2 -16c-1,1 -2,1 -3,1 -1,0 -3,1 -6,1 -4,0 -7,1 -8,1 -2,1 -3,2 -4,3 -1,1 -1,3 -1,4 0,2 0,4 2,5 1,1 3,2 6,2 2,0 4,-1 6,-2 2,-1 4,-3 5,-5 2,-2 3,-6 3,-10zm14 21l11 -57 7 0 -11 57 -7 0zm17 0l12 -57 7 0 -12 57 -7 0zm49 -14l7 1c-1,3 -4,7 -7,10 -4,3 -8,4 -13,4 -3,0 -6,-1 -8,-2 -3,-1 -5,-3 -6,-6 -1,-3 -2,-6 -2,-9 0,-5 1,-9 3,-13 2,-5 5,-8 8,-10 3,-2 7,-3 11,-3 5,0 9,2 12,5 3,3 4,7 4,12 0,2 0,4 0,6l-31 0c0,1 0,2 0,3 0,3 1,6 3,8 1,2 4,3 6,3 3,0 5,0 7,-2 3,-1 4,-4 6,-7zm-21 -10l23 0c0,-1 0,-1 0,-2 0,-3 0,-6 -2,-8 -2,-1 -4,-2 -7,-2 -3,0 -6,1 -8,3 -3,2 -5,5 -6,9zm35 24l8 -41 6 0 -1 8c2,-3 4,-5 6,-7 2,-1 4,-2 6,-2 2,0 3,1 5,2l-3 6c-1,-1 -2,-1 -4,-1 -2,0 -5,1 -7,4 -3,3 -5,8 -6,15l-4 16 -6 0zm23 16l1 -6c1,0 3,0 4,0 1,0 3,0 3,-1 2,-1 3,-2 4,-5l2 -4 -6 -41 7 0 3 21c0,4 1,8 1,12l19 -33 7 0 -26 47c-3,4 -5,7 -7,9 -2,1 -4,2 -7,2 -2,0 -3,0 -5,-1z"/>
  <path class="fil1" d="M23 86l10 -48 16 0c4,0 6,1 7,1 3,0 5,1 6,2 2,1 3,2 4,4 1,1 1,3 1,5 0,3 0,5 -2,7 -1,2 -4,3 -7,4 3,1 5,2 6,4 1,1 2,3 2,6 0,2 -1,5 -2,8 -2,2 -4,4 -7,5 -3,1 -7,2 -12,2l-22 0zm16 -28l7 0c3,0 6,-1 7,-1 2,-1 3,-1 4,-2 0,-1 1,-3 1,-4 0,-1 -1,-2 -1,-3 -1,-1 -2,-1 -3,-1 -1,-1 -3,-1 -6,-1l-7 0 -2 12zm-5 20l10 0c4,0 6,0 8,0 1,-1 2,-2 3,-3 1,-1 1,-2 1,-4 0,-1 -1,-3 -2,-4 -1,-1 -3,-1 -6,-1l-11 0 -3 12zm38 8l9 -48 10 0 -10 48 -9 0zm34 -48l33 0 -9 40 5 0 -5 21 -8 0 3 -13 -31 0 -2 13 -8 0 4 -21 4 0c6,-9 10,-22 14,-40zm21 8l-14 0c-2,13 -6,24 -10,32l18 0 6 -32zm15 40l10 -48 16 0c3,0 6,1 7,1 2,0 4,1 6,2 2,1 3,2 4,4 1,1 1,3 1,5 0,3 -1,5 -2,7 -2,2 -4,3 -7,4 2,1 4,2 6,4 1,1 2,3 2,6 0,2 -1,5 -3,8 -1,2 -4,4 -6,5 -3,1 -7,2 -12,2l-22 0zm15 -28l8 0c3,0 5,-1 7,-1 1,-1 3,-1 3,-2 1,-1 1,-3 1,-4 0,-1 0,-2 -1,-3 0,-1 -1,-1 -3,-1 0,-1 -2,-1 -5,-1l-7 0 -3 12zm-4 20l9 0c4,0 7,0 8,0 2,-1 3,-2 4,-3 0,-1 1,-2 1,-4 0,-1 -1,-3 -2,-4 -1,-1 -3,-1 -6,-1l-11 0 -3 12zm37 8l10 -48 10 0 -10 48 -10 0zm34 -48l33 0 -8 40 4 0 -4 21 -8 0 3 -13 -31 0 -3 13 -8 0 5 -21 4 0c6,-9 10,-22 13,-40zm22 8l-14 0c-3,13 -6,24 -11,32l18 0 7 -32zm45 29l-18 0 -6 11 -10 0 27 -48 11 0 7 48 -9 0 -2 -11zm-1 -8l-3 -19 -10 19 13 0zm30 -29l10 0 -7 30 26 -30 9 0 -10 48 -9 0 6 -30 -25 30 -9 0 9 -48zm12 -13l4 0c0,2 1,3 2,4 1,0 2,1 3,1 3,0 5,-2 7,-5l4 0c-1,3 -3,5 -5,7 -2,2 -4,2 -6,2 -3,0 -5,0 -6,-2 -2,-2 -3,-4 -3,-7zm49 61l-10 0 9 -40 -14 0 1 -8 38 0 -2 8 -14 0 -8 40zm22 0l10 -48 35 0 -1 8 -26 0 -2 11 24 0 -1 8 -25 0 -3 13 28 0 -2 8 -37 0zm-329 26l35 0 -1 8 -26 0 -8 40 -10 0 10 -48zm58 37l-18 0 -6 11 -10 0 27 -48 11 0 7 48 -9 0 -2 -11zm-1 -8l-3 -19 -10 19 13 0zm32 -29l33 0 -10 48 -10 0 8 -40 -13 0 -5 25c-1,3 -2,6 -3,9 -1,2 -2,4 -4,5 -1,1 -4,2 -6,2 -2,0 -4,-1 -7,-1l2 -8c1,0 2,0 3,0 2,0 4,-2 5,-7 0,0 0,0 0,-1l7 -32zm35 48l10 -48 35 0 -2 8 -25 0 -3 11 25 0 -2 8 -24 0 -3 13 27 0 -1 8 -37 0zm56 0l-10 0 10 -48 19 0c4,0 7,1 9,2 2,0 3,2 4,4 1,2 2,4 2,6 0,3 0,5 -1,7 -1,3 -2,4 -4,6 -1,1 -3,2 -4,3 -2,1 -4,1 -6,1 -2,1 -5,1 -9,1l-6 0 -4 18zm5 -26l3 0c6,0 9,0 11,-1 1,-1 3,-2 4,-3 1,-2 1,-3 1,-5 0,-1 0,-2 0,-3 -1,0 -2,-1 -3,-1 0,-1 -3,-1 -6,-1l-7 0 -3 14zm32 26l10 -48 35 0 -2 8 -25 0 -3 11 25 0 -2 8 -24 0 -3 13 27 0 -1 8 -37 0zm56 -48l10 0 -4 20 8 0c1,-6 3,-11 8,-15 4,-4 9,-5 15,-5 6,0 11,1 14,5 4,3 6,8 6,15 0,8 -2,14 -7,20 -4,6 -10,9 -18,9 -7,0 -12,-2 -15,-6 -4,-4 -5,-9 -5,-13 0,-1 0,-1 0,-2l-8 0 -4 20 -10 0 10 -48zm22 29c0,3 1,6 3,8 2,2 4,4 8,4 4,0 7,-2 10,-6 3,-4 4,-9 4,-15 0,-4 -1,-7 -3,-9 -2,-2 -5,-3 -7,-3 -5,0 -8,2 -11,6 -3,4 -4,9 -4,15z"/>
  <g id="_694609520">
   <path class="fil2" d="M262 206c-6,-3 -14,-1 -16,5l-19 37 0 0c-3,7 -7,14 -10,21 -6,11 -5,18 4,21l0 0 -5 12 62 31 6 -12c7,1 14,0 23,-7 28,-22 43,-33 57,-47 -10,-17 -22,-13 -38,2l40 -81c3,-6 1,-13 -5,-16 -6,-3 -13,0 -16,6l-25 51c1,-5 -2,-11 -7,-13 -6,-3 -14,-1 -17,4l-2 5c2,-6 -1,-11 -7,-14 -6,-3 -13,-1 -16,5l-2 3c1,-5 -2,-10 -7,-13z"/>
   <polygon class="fil3" points="286,336 206,296 199,311 279,350 "/>
   <polygon class="fil4" points="277,349 202,312 187,343 262,380 "/>
  </g>
 </g>
</svg>
