<?xml version="1.0" encoding="UTF-8"?>
<!DOCTYPE svg PUBLIC "-//W3C//DTD SVG 1.1//EN" "http://www.w3.org/Graphics/SVG/1.1/DTD/svg11.dtd">
<!-- Creator: CorelDRAW X6 -->
<svg xmlns="http://www.w3.org/2000/svg" xml:space="preserve" width="49.4836mm" height="25.6881mm" version="1.1" style="shape-rendering:geometricPrecision; text-rendering:geometricPrecision; image-rendering:optimizeQuality; fill-rule:evenodd; clip-rule:evenodd"
viewBox="0 0 403 209"
 xmlns:xlink="http://www.w3.org/1999/xlink">
 <defs>
  <style type="text/css">
   <![CDATA[
    .fil0 {fill:#A82682}
    .fil4 {fill:#E31E24}
    .fil2 {fill:#EBECEC}
    .fil3 {fill:#FCD5A6}
    .fil5 {fill:#C02222}
    .fil1 {fill:#EBECEC;fill-rule:nonzero}
   ]]>
  </style>
 </defs>
 <g id="Layer_x0020_1">
  <metadata id="CorelCorpID_0Corel-Layer"/>
  <path class="fil0" d="M24 0l355 0c13,0 24,11 24,25l0 72c0,14 -11,25 -24,25l-355 0c-13,0 -24,-11 -24,-25l0 -72c0,-14 11,-25 24,-25z"/>
  <path class="fil1" d="M210 19l0 84 -16 0 0 -57 -7 57 -11 0 -7 -55 0 55 -17 0 0 -84 24 0c1,5 2,11 3,18l2 21 5 -39 24 0zm18 0l31 0 0 17 -12 0 0 16 11 0 0 16 -11 0 0 18 13 0 0 17 -32 0 0 -84zm90 0l0 84 -16 0 -10 -38 0 38 -16 0 0 -84 16 0 10 38 0 -38 16 0zm61 0l0 56c0,7 -1,11 -1,14 0,2 -1,5 -3,7 -2,3 -4,5 -7,7 -3,1 -6,2 -10,2 -4,0 -8,-1 -11,-3 -4,-1 -6,-4 -8,-6 -1,-3 -2,-6 -3,-9 0,-3 0,-9 0,-18l0 -50 19 0 0 63c0,4 0,6 0,7 0,1 1,2 2,2 1,0 2,-1 2,-2 1,-1 1,-4 1,-8l0 -62 19 0z"/>
  <path class="fil2" d="M31 11l62 0c11,0 19,8 19,19l0 62c0,11 -8,20 -19,20l-62 0c-11,0 -20,-9 -20,-20l0 -62c0,-11 9,-19 20,-19zm0 1l62 0c10,0 18,8 18,18l0 62c0,10 -8,18 -18,18l-62 0c-10,0 -18,-8 -18,-18l0 -62c0,-10 8,-18 18,-18z"/>
  <g id="_202417232">
   <g>
    <path class="fil2" d="M27 54c4,0 7,3 7,7 0,4 -3,7 -7,7 -4,0 -7,-3 -7,-7 0,-4 3,-7 7,-7z"/>
    <path class="fil2" d="M45 54l50 0c4,0 8,3 8,7l0 0c0,4 -4,7 -8,7l-50 0c-4,0 -7,-3 -7,-7l0 0c0,-4 3,-7 7,-7z"/>
   </g>
   <g>
    <path class="fil2" d="M28 25c4,0 7,3 7,7 0,4 -3,7 -7,7 -4,0 -7,-3 -7,-7 0,-4 3,-7 7,-7z"/>
    <path class="fil2" d="M47 25l50 0c4,0 7,3 7,7l0 0c0,4 -3,7 -7,7l-50 0c-4,0 -7,-3 -7,-7l0 0c0,-4 3,-7 7,-7z"/>
   </g>
   <g>
    <path class="fil2" d="M27 83c4,0 7,3 7,7 0,4 -3,7 -7,7 -4,0 -7,-3 -7,-7 0,-4 3,-7 7,-7z"/>
    <path class="fil2" d="M45 83l50 0c4,0 8,3 8,7l0 0c0,4 -4,7 -8,7l-50 0c-4,0 -7,-3 -7,-7l0 0c0,-4 3,-7 7,-7z"/>
   </g>
  </g>
  <g id="_202418416">
   <path class="fil3" d="M194 85c4,-2 10,0 12,4l13 27 0 -1c2,5 5,10 7,15 4,8 3,13 -3,15l0 0 4 9 -45 22 -4 -9c-5,1 -10,0 -16,-5 -20,-15 -31,-23 -41,-34 7,-11 16,-9 27,2l-28 -58c-2,-4 -1,-9 3,-11 5,-2 10,0 12,4l18 37c-1,-4 1,-8 5,-10 4,-2 9,-1 11,4l2 3c-1,-4 1,-8 5,-10 4,-3 10,-1 12,3l1 2c-1,-3 1,-7 5,-9z"/>
   <polygon class="fil4" points="177,178 234,150 239,160 182,188 "/>
   <polygon class="fil5" points="183,187 237,161 248,183 194,209 "/>
  </g>
 </g>
</svg>
