<svg aria-hidden="true" style="position: absolute; width: 0; height: 0; overflow: hidden;" version="1.1" xmlns="http://www.w3.org/2000/svg" xmlns:xlink="http://www.w3.org/1999/xlink">
<defs>
<symbol id="icon-IconCatalog" viewBox="0 0 39 32">
<path fill="#a82682" style="fill: var(--color1, #a82682)" d="M2.408-0.003h34.415c1.304 0 2.308 1.104 2.308 2.408v19.665c0 1.405-1.003 2.508-2.308 2.508h-34.415c-1.304 0-2.408-1.104-2.408-2.508v-19.665c0-1.304 1.104-2.408 2.408-2.408z"></path>
<path fill="#fefefe" style="fill: var(--color2, #fefefe)" d="M17.96 18.759l0.702 0.1c-0.201 0.502-0.502 0.903-0.903 1.204s-0.803 0.401-1.304 0.401c-0.602 0-1.104-0.1-1.405-0.502-0.301-0.301-0.502-0.803-0.502-1.505 0-0.903 0.301-1.605 0.803-2.107 0.401-0.502 1.003-0.803 1.706-0.803 0.502 0 0.903 0.1 1.204 0.401s0.502 0.602 0.602 1.104l-0.602 0.1c-0.1-0.401-0.201-0.602-0.401-0.803s-0.502-0.301-0.803-0.301c-0.602 0-1.003 0.301-1.405 0.803-0.301 0.502-0.502 1.003-0.502 1.605 0 0.502 0.1 0.903 0.401 1.104 0.201 0.301 0.502 0.401 0.903 0.401s0.702-0.1 0.903-0.301c0.301-0.201 0.502-0.502 0.602-0.903zM21.371 19.963c-0.201 0.201-0.401 0.301-0.602 0.401s-0.401 0.1-0.602 0.1-0.602-0.1-0.803-0.201c-0.201-0.201-0.301-0.502-0.301-0.803 0-0.201 0-0.301 0.1-0.502 0.1-0.1 0.201-0.201 0.401-0.301 0.1-0.1 0.301-0.201 0.502-0.201 0.201-0.1 0.401-0.1 0.803-0.1 0.301 0 0.602 0 0.803-0.1 0-0.201 0-0.301 0-0.401s0-0.301-0.1-0.301c-0.1-0.1-0.301-0.201-0.602-0.201s-0.502 0.1-0.602 0.201c-0.201 0.1-0.301 0.201-0.401 0.401h-0.602c0.201-0.401 0.401-0.602 0.602-0.803 0.301-0.201 0.602-0.301 1.003-0.301s0.803 0.1 1.003 0.301c0.201 0.201 0.301 0.401 0.301 0.602s0 0.401-0.1 0.702l-0.201 0.803c0 0.301 0 0.502 0 0.702 0 0.1 0 0.301 0 0.502h-0.602c0-0.1 0-0.301 0-0.502zM21.572 18.659c-0.1 0-0.201 0.1-0.301 0.1s-0.201 0-0.502 0c-0.301 0.1-0.502 0.1-0.702 0.201-0.1 0-0.201 0.1-0.301 0.201s-0.1 0.201-0.1 0.301 0 0.301 0.201 0.401c0.1 0.1 0.201 0.201 0.401 0.201s0.401-0.1 0.602-0.201c0.201-0.1 0.301-0.201 0.401-0.401s0.201-0.502 0.301-0.803zM24.080 19.963l-0.1 0.502c-0.1 0-0.301 0-0.401 0-0.201 0-0.401 0-0.502-0.1-0.201-0.1-0.201-0.301-0.201-0.401s0-0.301 0.1-0.502l0.401-2.007h-0.502l0.1-0.502h0.502l0.201-0.903 0.702-0.401-0.301 1.304h0.602l-0.1 0.502h-0.602l-0.401 1.906c-0.1 0.201-0.1 0.401-0.1 0.401 0 0.1 0 0.1 0.1 0.201 0 0 0.1 0 0.201 0s0.201 0 0.301 0zM26.89 19.963c-0.201 0.201-0.401 0.301-0.602 0.401-0.1 0.1-0.301 0.1-0.602 0.1s-0.502-0.1-0.702-0.201c-0.201-0.201-0.301-0.502-0.301-0.803 0-0.201 0-0.301 0.1-0.502 0.1-0.1 0.201-0.201 0.401-0.301 0.1-0.1 0.301-0.201 0.502-0.201 0.1-0.1 0.401-0.1 0.702-0.1 0.401 0 0.702 0 0.803-0.1 0.1-0.201 0.1-0.301 0.1-0.401s0-0.301-0.1-0.301c-0.201-0.1-0.401-0.201-0.602-0.201-0.301 0-0.502 0.1-0.602 0.201-0.201 0.1-0.301 0.201-0.401 0.401h-0.602c0.1-0.401 0.301-0.602 0.602-0.803s0.602-0.301 1.003-0.301c0.401 0 0.803 0.1 1.003 0.301s0.301 0.401 0.301 0.602c0 0.201 0 0.401-0.1 0.702l-0.201 0.803c0 0.301-0.1 0.502-0.1 0.702 0 0.1 0.1 0.301 0.1 0.502h-0.602c0-0.1-0.1-0.301-0.1-0.502zM27.191 18.659c-0.1 0-0.201 0.1-0.301 0.1s-0.301 0-0.502 0c-0.301 0.1-0.602 0.1-0.702 0.201-0.201 0-0.301 0.1-0.301 0.201-0.1 0.1-0.1 0.201-0.1 0.301 0 0.201 0 0.301 0.1 0.401s0.301 0.201 0.502 0.201c0.201 0 0.401-0.1 0.602-0.201s0.301-0.201 0.401-0.401c0.1-0.201 0.201-0.502 0.301-0.803zM28.294 20.465l1.003-4.816h0.602l-1.003 4.816h-0.602zM29.899 19.060c0-0.602 0.201-1.204 0.602-1.605 0.301-0.401 0.803-0.602 1.304-0.602 0.401 0 0.702 0.201 1.003 0.401 0.301 0.301 0.401 0.602 0.401 1.104 0 0.401-0.1 0.702-0.301 1.104-0.1 0.301-0.301 0.602-0.602 0.803-0.301 0.1-0.702 0.201-1.003 0.201s-0.502 0-0.702-0.1c-0.201-0.1-0.401-0.301-0.502-0.502s-0.201-0.502-0.201-0.803zM30.502 19.060c0 0.301 0.1 0.602 0.201 0.702 0.201 0.201 0.401 0.301 0.602 0.301s0.301 0 0.401-0.1c0.1 0 0.201-0.1 0.301-0.201 0.201-0.1 0.201-0.201 0.301-0.401 0.1-0.1 0.201-0.301 0.201-0.401 0.1-0.201 0.1-0.401 0.1-0.602 0-0.301-0.1-0.602-0.201-0.803-0.201-0.1-0.401-0.201-0.602-0.201s-0.401 0-0.502 0.1c-0.201 0.1-0.301 0.201-0.502 0.401-0.1 0.201-0.201 0.401-0.201 0.602-0.1 0.201-0.1 0.401-0.1 0.602zM33.512 20.766h0.602c0 0.201 0 0.301 0 0.301 0.1 0.1 0.1 0.201 0.201 0.201s0.201 0.1 0.401 0.1c0.401 0 0.602-0.1 0.803-0.301 0.1-0.1 0.201-0.401 0.301-0.803v-0.301c-0.301 0.301-0.602 0.502-1.003 0.502-0.301 0-0.602-0.201-0.803-0.401-0.301-0.301-0.401-0.602-0.401-1.104 0-0.401 0.1-0.803 0.301-1.104s0.401-0.602 0.702-0.702c0.201-0.201 0.502-0.301 0.702-0.301 0.502 0 0.903 0.201 1.104 0.702l0.1-0.602h0.602l-0.702 3.311c-0.1 0.401-0.201 0.702-0.301 0.903-0.201 0.201-0.301 0.401-0.602 0.502-0.201 0.1-0.401 0.201-0.702 0.201s-0.502-0.1-0.702-0.201c-0.201 0-0.401-0.1-0.502-0.301-0.1-0.1-0.1-0.301-0.1-0.401s0-0.201 0-0.201zM34.214 18.86c0 0.301 0 0.401 0.1 0.602 0.1 0.1 0.1 0.301 0.301 0.401 0.1 0 0.201 0.1 0.401 0.1s0.401-0.1 0.502-0.201c0.201-0.201 0.401-0.401 0.502-0.702 0.1-0.201 0.201-0.502 0.201-0.803s-0.1-0.502-0.201-0.602c-0.201-0.201-0.401-0.301-0.602-0.301s-0.301 0-0.401 0.1-0.301 0.201-0.401 0.401c-0.1 0.1-0.201 0.301-0.301 0.502-0.1 0.301-0.1 0.401-0.1 0.502z"></path>
<path fill="#fefefe" style="fill: var(--color2, #fefefe)" d="M7.525 3.308h0.803l-0.401 1.706c0.201 0 0.301 0 0.401-0.1s0.201-0.301 0.401-0.602c0.201-0.301 0.301-0.502 0.401-0.602 0.1-0.201 0.201-0.301 0.401-0.301 0.1-0.1 0.301-0.1 0.602-0.1h0.201l-0.201 0.602h-0.1c-0.1 0-0.201 0-0.301 0.1 0 0-0.1 0.1-0.1 0.201-0.301 0.401-0.401 0.702-0.602 0.803-0.1 0.1-0.201 0.201-0.401 0.301 0.301 0 0.502 0.301 0.602 0.702 0 0 0 0 0 0l0.301 1.304h-0.803l-0.301-1.204c0-0.1-0.1-0.1-0.1-0.301-0.1-0.201-0.301-0.201-0.502-0.201l-0.401 1.706h-0.803l0.903-4.013zM12.843 6.418h-1.505l-0.502 0.903h-0.903l2.308-4.013h0.903l0.602 4.013h-0.702l-0.201-0.903zM12.742 5.716l-0.201-1.605-0.903 1.605h1.104zM15.451 7.321h-0.803l0.702-3.311h-1.204l0.201-0.702h3.11l-0.1 0.702h-1.204l-0.702 3.311zM19.565 6.418h-1.605l-0.502 0.903h-0.803l2.207-4.013h1.003l0.602 4.013h-0.803l-0.1-0.903zM19.465 5.716l-0.201-1.605-0.903 1.605h1.104zM22.174 3.308h2.709l-0.803 4.013h-0.903l0.702-3.311h-1.104l-0.401 2.107c-0.1 0.201-0.1 0.502-0.201 0.702s-0.201 0.301-0.401 0.401c-0.1 0.1-0.301 0.201-0.502 0.201s-0.401-0.1-0.602-0.1l0.201-0.702c0.1 0 0.201 0 0.201 0 0.301 0 0.401-0.201 0.502-0.502 0-0.1 0-0.1 0-0.1l0.602-2.709zM25.284 5.716c0-0.201 0.1-0.502 0.1-0.702 0.1-0.401 0.301-0.702 0.502-0.903 0.201-0.301 0.401-0.502 0.702-0.602 0.301-0.201 0.602-0.301 1.003-0.301 0.502 0 0.903 0.201 1.204 0.502s0.401 0.702 0.401 1.204c0 0.401-0.1 0.803-0.301 1.204s-0.401 0.702-0.803 0.903c-0.301 0.301-0.702 0.401-1.104 0.401s-0.702-0.1-1.003-0.301c-0.201-0.201-0.401-0.401-0.502-0.602-0.1-0.301-0.201-0.502-0.201-0.803zM26.087 5.716c0 0.301 0.1 0.502 0.301 0.702s0.401 0.301 0.702 0.301c0.201 0 0.401-0.1 0.602-0.201 0.201-0.201 0.401-0.401 0.502-0.702s0.201-0.602 0.201-0.903c0-0.301-0.1-0.502-0.301-0.702-0.1-0.201-0.301-0.301-0.602-0.301-0.401 0-0.702 0.201-1.003 0.602-0.201 0.401-0.401 0.803-0.401 1.204zM30.502 3.308h2.91l-0.1 0.702h-2.207l-0.702 3.311h-0.803l0.903-4.013zM9.030 9.528h0.803l-0.301 1.706c0.1 0 0.301 0 0.401-0.1 0 0 0.201-0.201 0.401-0.502 0.1-0.401 0.301-0.602 0.401-0.702s0.201-0.201 0.401-0.301c0.1 0 0.301-0.1 0.502-0.1h0.301l-0.201 0.602h-0.1c-0.1 0-0.201 0-0.301 0.1 0 0-0.1 0.1-0.201 0.201-0.201 0.401-0.301 0.702-0.502 0.803-0.1 0.1-0.201 0.201-0.401 0.301 0.301 0.1 0.502 0.301 0.502 0.702 0.1 0 0.1 0 0.1 0.1l0.301 1.204h-0.803l-0.401-1.204c0 0 0-0.1-0.1-0.301 0-0.1-0.201-0.201-0.401-0.201l-0.401 1.706h-0.803l0.803-4.013zM14.448 12.639h-1.605l-0.401 0.903h-0.903l2.308-4.013h0.903l0.602 4.013h-0.702l-0.201-0.903zM14.348 12.037l-0.201-1.605-0.903 1.605h1.104zM16.856 13.542h-0.803l0.903-4.013h1.605c0.301 0 0.502 0.1 0.702 0.1 0.1 0.1 0.301 0.201 0.401 0.401 0.1 0.1 0.1 0.301 0.1 0.502s0 0.401-0.1 0.602c-0.1 0.201-0.201 0.401-0.301 0.502s-0.201 0.201-0.401 0.201c-0.1 0.1-0.301 0.1-0.502 0.201-0.1 0-0.401 0-0.702 0h-0.502l-0.401 1.505zM17.358 11.334h0.301c0.401 0 0.702 0 0.803-0.1 0.201 0 0.301-0.1 0.401-0.201 0-0.1 0.1-0.301 0.1-0.401s0-0.201-0.1-0.201c0-0.1-0.1-0.201-0.201-0.201 0 0-0.201 0-0.502 0h-0.602l-0.201 1.104zM21.371 13.542h-0.903l0.702-3.311h-1.104l0.1-0.702h3.11l-0.1 0.702h-1.104l-0.702 3.311zM24.080 9.528h0.702l-0.502 2.508 2.207-2.508h0.702l-0.803 4.013h-0.803l0.602-2.508-2.207 2.508h-0.803l0.903-4.013zM30.201 11.736h-1.605l-0.401 1.806h-0.803l0.903-4.013h0.803l-0.301 1.605h1.505l0.301-1.605h0.803l-0.803 4.013h-0.803l0.401-1.806z"></path>
<path fill="#fcd5a6" style="fill: var(--color3, #fcd5a6)" d="M16.756 17.355c0.502-0.201 1.104 0 1.405 0.401l1.505 3.211c0.301 0.602 0.602 1.204 0.903 1.706 0.401 0.903 0.301 1.505-0.401 1.806v0l0.502 1.003-5.318 2.508-0.502-1.003c-0.502 0.201-1.204 0.1-1.906-0.502-2.408-1.906-3.612-2.809-4.816-4.013 0.803-1.405 1.806-1.104 3.211 0.201l-3.411-6.823c-0.201-0.502 0-1.104 0.502-1.304 0.502-0.301 1.003-0.1 1.304 0.401l2.107 4.415c-0.1-0.502 0.1-1.003 0.602-1.204s1.204-0.1 1.405 0.401l0.201 0.401c-0.1-0.502 0.1-1.003 0.502-1.204 0.602-0.201 1.204-0.1 1.405 0.401l0.201 0.301c-0.1-0.401 0.1-0.903 0.602-1.104z"></path>
<path fill="#e31e24" style="fill: var(--color4, #e31e24)" d="M14.749 28.291l6.722-3.311 0.602 1.204-6.722 3.311z"></path>
<path fill="#c02222" style="fill: var(--color5, #c02222)" d="M15.451 29.395l6.321-3.11 1.304 2.609-6.321 3.11z"></path>
</symbol>
<symbol id="icon-IconGallery" viewBox="0 0 39 32">
<path fill="#a82682" style="fill: var(--color1, #a82682)" d="M2.361-0.023h34.408c1.349 0 2.361 1.096 2.361 2.446v19.649c0 1.349-1.012 2.446-2.361 2.446h-34.408c-1.265 0-2.361-1.096-2.361-2.446v-19.649c0-1.349 1.096-2.446 2.361-2.446z"></path>
<path fill="#fefefe" style="fill: var(--color2, #fefefe)" d="M4.807 18.53l0.084-0.59h2.108l-0.422 2.024c-0.253 0.169-0.506 0.253-0.843 0.337-0.337 0.169-0.675 0.169-1.012 0.169-0.675 0-1.265-0.169-1.602-0.59-0.253-0.337-0.422-0.843-0.422-1.349 0-0.59 0.169-1.181 0.422-1.602 0.253-0.506 0.506-0.843 0.928-1.096 0.422-0.169 0.843-0.337 1.265-0.337 0.337 0 0.675 0.084 0.928 0.253 0.253 0.084 0.506 0.253 0.675 0.506 0.084 0.169 0.253 0.422 0.253 0.759l-0.59 0.084c-0.084-0.337-0.253-0.59-0.422-0.759-0.253-0.169-0.506-0.253-0.843-0.253s-0.675 0.084-0.928 0.253c-0.337 0.169-0.59 0.506-0.759 0.843-0.169 0.422-0.253 0.843-0.253 1.349 0 0.422 0.084 0.843 0.337 1.096s0.59 0.337 1.012 0.337c0.422 0 0.843-0.169 1.349-0.422l0.169-1.012h-1.434zM9.867 19.964c-0.253 0.169-0.422 0.337-0.59 0.422-0.253 0.084-0.422 0.084-0.675 0.084s-0.506-0.084-0.759-0.253c-0.169-0.169-0.253-0.422-0.253-0.759 0-0.169 0-0.337 0.084-0.506s0.253-0.253 0.337-0.337c0.169-0.084 0.337-0.169 0.59-0.169 0.084-0.084 0.337-0.084 0.759-0.084 0.337 0 0.59-0.084 0.759-0.169 0.084-0.084 0.084-0.253 0.084-0.337 0-0.169 0-0.253-0.169-0.337-0.084-0.084-0.337-0.169-0.59-0.169s-0.422 0.084-0.59 0.169c-0.169 0.084-0.253 0.253-0.337 0.422h-0.59c0.084-0.337 0.253-0.59 0.59-0.843 0.253-0.169 0.59-0.253 1.012-0.253s0.759 0.084 1.012 0.337c0.169 0.169 0.253 0.337 0.253 0.59 0 0.169 0 0.422-0.084 0.675l-0.169 0.843c-0.084 0.253-0.084 0.506-0.084 0.675 0 0.084 0 0.253 0.084 0.422h-0.675c0-0.084 0-0.253 0-0.422zM10.036 18.614c-0.084 0.084-0.169 0.084-0.253 0.084s-0.253 0.084-0.506 0.084c-0.337 0-0.59 0.084-0.675 0.084-0.169 0.084-0.253 0.169-0.337 0.253s-0.084 0.253-0.084 0.337c0 0.169 0 0.337 0.169 0.422 0.084 0.084 0.253 0.169 0.506 0.169 0.169 0 0.337-0.084 0.506-0.169s0.337-0.253 0.422-0.422c0.169-0.169 0.253-0.506 0.253-0.843zM11.216 20.385l0.928-4.807h0.59l-0.928 4.807h-0.59zM12.65 20.385l1.012-4.807h0.59l-1.012 4.807h-0.59zM16.782 19.205l0.59 0.084c-0.084 0.253-0.337 0.59-0.59 0.843-0.337 0.253-0.675 0.337-1.096 0.337-0.253 0-0.506-0.084-0.675-0.169-0.253-0.084-0.422-0.253-0.506-0.506s-0.169-0.506-0.169-0.759c0-0.422 0.084-0.759 0.253-1.096 0.169-0.422 0.422-0.675 0.675-0.843s0.59-0.253 0.928-0.253c0.422 0 0.759 0.169 1.012 0.422s0.337 0.59 0.337 1.012c0 0.169 0 0.337 0 0.506h-2.614c0 0.084 0 0.169 0 0.253 0 0.253 0.084 0.506 0.253 0.675 0.084 0.169 0.337 0.253 0.506 0.253 0.253 0 0.422 0 0.59-0.169 0.253-0.084 0.337-0.337 0.506-0.59zM15.011 18.361h1.94c0-0.084 0-0.084 0-0.169 0-0.253 0-0.506-0.169-0.675-0.169-0.084-0.337-0.169-0.59-0.169s-0.506 0.084-0.675 0.253c-0.253 0.169-0.422 0.422-0.506 0.759zM17.963 20.385l0.675-3.458h0.506l-0.084 0.675c0.169-0.253 0.337-0.422 0.506-0.59 0.169-0.084 0.337-0.169 0.506-0.169s0.253 0.084 0.422 0.169l-0.253 0.506c-0.084-0.084-0.169-0.084-0.337-0.084s-0.422 0.084-0.59 0.337c-0.253 0.253-0.422 0.675-0.506 1.265l-0.337 1.349h-0.506zM19.902 21.735l0.084-0.506c0.084 0 0.253 0 0.337 0s0.253 0 0.253-0.084 0.253-0.169 0.337-0.422l0.169-0.337-0.506-3.458h0.59l0.253 1.771c0 0.337 0.084 0.675 0.084 1.012l1.602-2.783h0.59l-2.193 3.964c-0.253 0.337-0.422 0.59-0.59 0.759-0.169 0.084-0.337 0.169-0.59 0.169-0.169 0-0.253 0-0.422-0.084z"></path>
<path fill="#fefefe" style="fill: var(--color2, #fefefe)" d="M1.94 7.229l0.843-4.048h1.349c0.337 0 0.506 0.084 0.59 0.084 0.253 0 0.422 0.084 0.506 0.169 0.169 0.084 0.253 0.169 0.337 0.337 0.084 0.084 0.084 0.253 0.084 0.422 0 0.253 0 0.422-0.169 0.59-0.084 0.169-0.337 0.253-0.59 0.337 0.253 0.084 0.422 0.169 0.506 0.337 0.084 0.084 0.169 0.253 0.169 0.506 0 0.169-0.084 0.422-0.169 0.675-0.169 0.169-0.337 0.337-0.59 0.422s-0.59 0.169-1.012 0.169h-1.855zM3.289 4.868h0.59c0.253 0 0.506-0.084 0.59-0.084 0.169-0.084 0.253-0.084 0.337-0.169 0-0.084 0.084-0.253 0.084-0.337s-0.084-0.169-0.084-0.253c-0.084-0.084-0.169-0.084-0.253-0.084-0.084-0.084-0.253-0.084-0.506-0.084h-0.59l-0.169 1.012zM2.867 6.555h0.843c0.337 0 0.506 0 0.675 0 0.084-0.084 0.169-0.169 0.253-0.253s0.084-0.169 0.084-0.337c0-0.084-0.084-0.253-0.169-0.337s-0.253-0.084-0.506-0.084h-0.928l-0.253 1.012zM6.072 7.229l0.759-4.048h0.843l-0.843 4.048h-0.759zM8.939 3.181h2.783l-0.759 3.373h0.422l-0.422 1.771h-0.675l0.253-1.096h-2.614l-0.169 1.096h-0.675l0.337-1.771h0.337c0.506-0.759 0.843-1.855 1.181-3.373zM10.71 3.856h-1.181c-0.169 1.096-0.506 2.024-0.843 2.699h1.518l0.506-2.699zM11.975 7.229l0.843-4.048h1.349c0.253 0 0.506 0.084 0.59 0.084 0.169 0 0.337 0.084 0.506 0.169s0.253 0.169 0.337 0.337c0.084 0.084 0.084 0.253 0.084 0.422 0 0.253-0.084 0.422-0.169 0.59-0.169 0.169-0.337 0.253-0.59 0.337 0.169 0.084 0.337 0.169 0.506 0.337 0.084 0.084 0.169 0.253 0.169 0.506 0 0.169-0.084 0.422-0.253 0.675-0.084 0.169-0.337 0.337-0.506 0.422-0.253 0.084-0.59 0.169-1.012 0.169h-1.855zM13.24 4.868h0.675c0.253 0 0.422-0.084 0.59-0.084 0.084-0.084 0.253-0.084 0.253-0.169 0.084-0.084 0.084-0.253 0.084-0.337s0-0.169-0.084-0.253c0-0.084-0.084-0.084-0.253-0.084 0-0.084-0.169-0.084-0.422-0.084h-0.59l-0.253 1.012zM12.903 6.555h0.759c0.337 0 0.59 0 0.675 0 0.169-0.084 0.253-0.169 0.337-0.253 0-0.084 0.084-0.169 0.084-0.337 0-0.084-0.084-0.253-0.169-0.337s-0.253-0.084-0.506-0.084h-0.928l-0.253 1.012zM16.023 7.229l0.843-4.048h0.843l-0.843 4.048h-0.843zM18.89 3.181h2.783l-0.675 3.373h0.337l-0.337 1.771h-0.675l0.253-1.096h-2.614l-0.253 1.096h-0.675l0.422-1.771h0.337c0.506-0.759 0.843-1.855 1.096-3.373zM20.746 3.856h-1.181c-0.253 1.096-0.506 2.024-0.928 2.699h1.518l0.59-2.699zM24.541 6.302h-1.518l-0.506 0.928h-0.843l2.277-4.048h0.928l0.59 4.048h-0.759l-0.169-0.928zM24.456 5.627l-0.253-1.602-0.843 1.602h1.096zM26.986 3.181h0.843l-0.59 2.53 2.193-2.53h0.759l-0.843 4.048h-0.759l0.506-2.53-2.108 2.53h-0.759l0.759-4.048zM27.998 2.085h0.337c0 0.169 0.084 0.253 0.169 0.337 0.084 0 0.169 0.084 0.253 0.084 0.253 0 0.422-0.169 0.59-0.422h0.337c-0.084 0.253-0.253 0.422-0.422 0.59s-0.337 0.169-0.506 0.169c-0.253 0-0.422 0-0.506-0.169-0.169-0.169-0.253-0.337-0.253-0.59zM32.131 7.229h-0.843l0.759-3.373h-1.181l0.084-0.675h3.205l-0.169 0.675h-1.181l-0.675 3.373zM33.986 7.229l0.843-4.048h2.952l-0.084 0.675h-2.193l-0.169 0.928h2.024l-0.084 0.675h-2.108l-0.253 1.096h2.361l-0.169 0.675h-3.12zM6.241 9.422h2.952l-0.084 0.675h-2.193l-0.675 3.373h-0.843l0.843-4.048zM11.132 12.542h-1.518l-0.506 0.928h-0.843l2.277-4.048h0.928l0.59 4.048h-0.759l-0.169-0.928zM11.048 11.868l-0.253-1.602-0.843 1.602h1.096zM13.746 9.422h2.783l-0.843 4.048h-0.843l0.675-3.373h-1.096l-0.422 2.108c-0.084 0.253-0.169 0.506-0.253 0.759-0.084 0.169-0.169 0.337-0.337 0.422-0.084 0.084-0.337 0.169-0.506 0.169s-0.337-0.084-0.59-0.084l0.169-0.675c0.084 0 0.169 0 0.253 0 0.169 0 0.337-0.169 0.422-0.59 0 0 0 0 0-0.084l0.59-2.699zM16.698 13.47l0.843-4.048h2.952l-0.169 0.675h-2.108l-0.253 0.928h2.108l-0.169 0.675h-2.024l-0.253 1.096h2.277l-0.084 0.675h-3.12zM21.42 13.47h-0.843l0.843-4.048h1.602c0.337 0 0.59 0.084 0.759 0.169 0.169 0 0.253 0.169 0.337 0.337s0.169 0.337 0.169 0.506c0 0.253 0 0.422-0.084 0.59-0.084 0.253-0.169 0.337-0.337 0.506-0.084 0.084-0.253 0.169-0.337 0.253-0.169 0.084-0.337 0.084-0.506 0.084-0.169 0.084-0.422 0.084-0.759 0.084h-0.506l-0.337 1.518zM21.842 11.277h0.253c0.506 0 0.759 0 0.928-0.084 0.084-0.084 0.253-0.169 0.337-0.253 0.084-0.169 0.084-0.253 0.084-0.422 0-0.084 0-0.169 0-0.253-0.084 0-0.169-0.084-0.253-0.084 0-0.084-0.253-0.084-0.506-0.084h-0.59l-0.253 1.181zM24.541 13.47l0.843-4.048h2.952l-0.169 0.675h-2.108l-0.253 0.928h2.108l-0.169 0.675h-2.024l-0.253 1.096h2.277l-0.084 0.675h-3.12zM29.263 9.422h0.843l-0.337 1.687h0.675c0.084-0.506 0.253-0.928 0.675-1.265 0.337-0.337 0.759-0.422 1.265-0.422s0.928 0.084 1.181 0.422c0.337 0.253 0.506 0.675 0.506 1.265 0 0.675-0.169 1.181-0.59 1.687-0.337 0.506-0.843 0.759-1.518 0.759-0.59 0-1.012-0.169-1.265-0.506-0.337-0.337-0.422-0.759-0.422-1.096 0-0.084 0-0.084 0-0.169h-0.675l-0.337 1.687h-0.843l0.843-4.048zM31.119 11.868c0 0.253 0.084 0.506 0.253 0.675s0.337 0.337 0.675 0.337c0.337 0 0.59-0.169 0.843-0.506s0.337-0.759 0.337-1.265c0-0.337-0.084-0.59-0.253-0.759s-0.422-0.253-0.59-0.253c-0.422 0-0.675 0.169-0.928 0.506s-0.337 0.759-0.337 1.265z"></path>
<path fill="#fcd5a6" style="fill: var(--color3, #fcd5a6)" d="M22.095 17.349c-0.506-0.253-1.181-0.084-1.349 0.422l-1.602 3.12c-0.253 0.59-0.59 1.181-0.843 1.771-0.506 0.928-0.422 1.518 0.337 1.771v0l-0.422 1.012 5.229 2.614 0.506-1.012c0.59 0.084 1.181 0 1.94-0.59 2.361-1.855 3.626-2.783 4.807-3.964-0.843-1.434-1.855-1.096-3.205 0.169l3.373-6.831c0.253-0.506 0.084-1.096-0.422-1.349s-1.096 0-1.349 0.506l-2.108 4.301c0.084-0.422-0.169-0.928-0.59-1.096-0.506-0.253-1.181-0.084-1.434 0.337l-0.169 0.422c0.169-0.506-0.084-0.928-0.59-1.181s-1.096-0.084-1.349 0.422l-0.169 0.253c0.084-0.422-0.169-0.843-0.59-1.096z"></path>
<path fill="#e31e24" style="fill: var(--color4, #e31e24)" d="M24.119 28.313l-6.747-3.373-0.59 1.265 6.747 3.289z"></path>
<path fill="#c02222" style="fill: var(--color5, #c02222)" d="M23.36 29.409l-6.325-3.12-1.265 2.614 6.325 3.12z"></path>
</symbol>
<symbol id="icon-IconMenu" viewBox="0 0 62 32">
<path fill="#a82682" style="fill: var(--color1, #a82682)" d="M3.671 0.016h54.3c1.988 0 3.671 1.683 3.671 3.824v11.013c0 2.141-1.683 3.824-3.671 3.824h-54.3c-1.988 0-3.671-1.683-3.671-3.824v-11.013c0-2.141 1.683-3.824 3.671-3.824z"></path>
<path fill="#ebecec" style="fill: var(--color6, #ebecec)" d="M32.121 2.922v12.849h-2.447v-8.719l-1.071 8.719h-1.683l-1.071-8.413v8.413h-2.6v-12.849h3.671c0.153 0.765 0.306 1.683 0.459 2.753l0.306 3.212 0.765-5.965h3.671zM34.875 2.922h4.742v2.6h-1.836v2.447h1.683v2.447h-1.683v2.753h1.988v2.6h-4.895v-12.849zM48.641 2.922v12.849h-2.447l-1.53-5.812v5.812h-2.447v-12.849h2.447l1.53 5.812v-5.812h2.447zM57.971 2.922v8.566c0 1.071-0.153 1.683-0.153 2.141 0 0.306-0.153 0.765-0.459 1.071-0.306 0.459-0.612 0.765-1.071 1.071-0.459 0.153-0.918 0.306-1.53 0.306s-1.224-0.153-1.683-0.459c-0.612-0.153-0.918-0.612-1.224-0.918-0.153-0.459-0.306-0.918-0.459-1.377 0-0.459 0-1.377 0-2.753v-7.648h2.906v9.636c0 0.612 0 0.918 0 1.071s0.153 0.306 0.306 0.306c0.153 0 0.306-0.153 0.306-0.306 0.153-0.153 0.153-0.612 0.153-1.224v-9.483h2.906z"></path>
<path fill="#ebecec" style="fill: var(--color6, #ebecec)" d="M4.742 1.698c-1.683 0-3.059 1.224-3.059 2.906v9.483c0 1.683 1.377 3.059 3.059 3.059h9.483c1.683 0 2.906-1.377 2.906-3.059v-9.483c0-1.683-1.224-2.906-2.906-2.906h-9.483zM4.742 1.851h9.483c1.53 0 2.753 1.224 2.753 2.753v9.483c0 1.53-1.224 2.753-2.753 2.753h-9.483c-1.53 0-2.753-1.224-2.753-2.753v-9.483c0-1.53 1.224-2.753 2.753-2.753z"></path>
<path fill="#ebecec" style="fill: var(--color6, #ebecec)" d="M4.13 8.276c0.612 0 1.071 0.459 1.071 1.071s-0.459 1.071-1.071 1.071c-0.612 0-1.071-0.459-1.071-1.071s0.459-1.071 1.071-1.071z"></path>
<path fill="#ebecec" style="fill: var(--color6, #ebecec)" d="M6.883 8.276h7.648c0.612 0 1.224 0.459 1.224 1.071v0c0 0.612-0.612 1.071-1.224 1.071h-7.648c-0.612 0-1.071-0.459-1.071-1.071v0c0-0.612 0.459-1.071 1.071-1.071z"></path>
<path fill="#ebecec" style="fill: var(--color6, #ebecec)" d="M4.283 3.84c0.612 0 1.071 0.459 1.071 1.071s-0.459 1.071-1.071 1.071c-0.612 0-1.071-0.459-1.071-1.071s0.459-1.071 1.071-1.071z"></path>
<path fill="#ebecec" style="fill: var(--color6, #ebecec)" d="M7.189 3.84h7.648c0.612 0 1.071 0.459 1.071 1.071v0c0 0.612-0.459 1.071-1.071 1.071h-7.648c-0.612 0-1.071-0.459-1.071-1.071v0c0-0.612 0.459-1.071 1.071-1.071z"></path>
<path fill="#ebecec" style="fill: var(--color6, #ebecec)" d="M4.13 12.711c0.612 0 1.071 0.459 1.071 1.071s-0.459 1.071-1.071 1.071c-0.612 0-1.071-0.459-1.071-1.071s0.459-1.071 1.071-1.071z"></path>
<path fill="#ebecec" style="fill: var(--color6, #ebecec)" d="M6.883 12.711h7.648c0.612 0 1.224 0.459 1.224 1.071v0c0 0.612-0.612 1.071-1.224 1.071h-7.648c-0.612 0-1.071-0.459-1.071-1.071v0c0-0.612 0.459-1.071 1.071-1.071z"></path>
<path fill="#fcd5a6" style="fill: var(--color3, #fcd5a6)" d="M29.674 13.017c0.612-0.306 1.53 0 1.835 0.612l1.988 4.13v-0.153c0.306 0.765 0.765 1.53 1.071 2.294 0.612 1.224 0.459 1.988-0.459 2.294v0l0.612 1.377-6.883 3.365-0.612-1.377c-0.765 0.153-1.53 0-2.447-0.765-3.059-2.294-4.742-3.518-6.271-5.201 1.071-1.683 2.447-1.377 4.13 0.306l-4.283-8.872c-0.306-0.612-0.153-1.377 0.459-1.683 0.765-0.306 1.53 0 1.835 0.612l2.753 5.659c-0.153-0.612 0.153-1.224 0.765-1.53s1.377-0.153 1.683 0.612l0.306 0.459c-0.153-0.612 0.153-1.224 0.765-1.53 0.612-0.459 1.53-0.153 1.835 0.459l0.153 0.306c-0.153-0.459 0.153-1.071 0.765-1.377z"></path>
<path fill="#e31e24" style="fill: var(--color4, #e31e24)" d="M27.074 27.242l8.719-4.283 0.765 1.53-8.719 4.283z"></path>
<path fill="#c02222" style="fill: var(--color5, #c02222)" d="M27.991 28.619l8.26-3.977 1.683 3.365-8.26 3.977z"></path>
</symbol>
<symbol id="icon-IconX" viewBox="0 0 25 32">
<path fill="#a82682" style="fill: var(--color1, #a82682)" d="M9.408 0c5.333 0 9.412 4.078 9.412 9.412s-4.078 9.412-9.412 9.412c-5.333 0-9.412-4.078-9.412-9.412s4.078-9.412 9.412-9.412z"></path>
<path fill="#ebecec" style="fill: var(--color6, #ebecec)" d="M9.408 0.941c-4.706 0-8.471 3.765-8.471 8.471s3.765 8.471 8.471 8.471c4.706 0 8.471-3.765 8.471-8.471s-3.765-8.471-8.471-8.471zM9.408 0.627c5.020 0 8.784 4.078 8.784 8.784 0 5.020-3.765 8.784-8.784 8.784-4.706 0-8.784-3.765-8.784-8.784 0-4.706 4.078-8.784 8.784-8.784z"></path>
<path fill="#ebecec" style="fill: var(--color6, #ebecec)" d="M4.388 14.745l4.078-5.647-3.765-5.020h2.196l1.882 2.51c0.314 0.627 0.314 0.941 0.627 1.255 0.314-0.627 0.627-0.941 0.941-1.255l1.569-2.51h2.51l-3.765 5.020 3.765 5.647h-2.196l-2.196-3.137-0.627-0.941-2.824 4.078h-2.196z"></path>
<path fill="#fcd5a6" style="fill: var(--color3, #fcd5a6)" d="M16.937 12.863c0.627-0.314 1.569 0 1.882 0.627l1.882 4.078c0.314 0.941 0.941 1.569 1.255 2.51 0.627 0.941 0.314 1.882-0.627 2.196v0l0.627 1.255-6.902 3.451-0.627-1.255c-0.627 0-1.569 0-2.51-0.941-3.137-2.196-4.706-3.451-6.274-5.020 0.941-1.882 2.51-1.569 4.078 0.314l-4.392-9.098c-0.314-0.627 0-1.569 0.627-1.882s1.569 0 1.882 0.627l2.824 5.961c-0.314-0.627 0-1.255 0.627-1.569s1.569-0.314 1.882 0.314l0.314 0.627c-0.314-0.627 0-1.255 0.627-1.569s1.569 0 1.882 0.627v0.314c0-0.627 0.314-1.255 0.941-1.569z"></path>
<path fill="#e31e24" style="fill: var(--color4, #e31e24)" d="M14.427 27.294l8.784-4.392 0.627 1.569-8.784 4.392z"></path>
<path fill="#c02222" style="fill: var(--color5, #c02222)" d="M15.368 28.863l8.157-4.078 1.569 3.451-8.157 3.765z"></path>
</symbol>
<symbol id="icon-exit" viewBox="0 0 32 32">
<path d="M10.145 12.634c0 0.15 0.035 0.274 0.071 0.415 0.009 0.035 0.018 0.053 0.026 0.088 0.062 0.141 0.124 0.265 0.221 0.379l0.018 0.018c0.071 0.079 0.132 0.159 0.221 0.229l0.326 0.194c0 0 0.009 0 0.009 0 0.071 0.035 0.247 0.097 0.326 0.097 0.326 0 0.485 0.062 0.847-0.079l0.309-0.168c0.018-0.009 0.018-0.018 0.035-0.026 0 0 0.009-0.009 0.009-0.009 0.009 0 0.009-0.009 0.018-0.009 0.168-0.141 0.344-0.335 0.424-0.547 0.044-0.115 0.097-0.238 0.124-0.362 0.018-0.132 0.168-0.573 0.176-0.662 0.009-0.071 0-0.044 0.018-0.097 0.071-0.203 0.15-0.609 0.212-0.75 0.018-0.044 0.026-0.053 0.026-0.115 0.106 0 0.079-0.009 0.159-0.035l0.503-0.141c0 0.124-0.044 0.265-0.079 0.371l-0.159 0.485c-0.026 0.071-0.009 0.071-0.026 0.132-0.018 0.071-0.018 0.026-0.044 0.097l-0.106 0.371c-0.044 0.106-0.141 0.441-0.141 0.538 0 0.141 0.097 0.274 0.185 0.353 0.071 0.071 0.212 0.132 0.309 0.132 0.071 0 0.221-0.053 0.274-0.088 0.044-0.026 0.044-0.026 0.079-0.062l0.379-1.041c0.018-0.053 0.018-0.018 0.035-0.097 0.009-0.035 0.018-0.071 0.026-0.097l0.159-0.485c0.009-0.044 0-0.062 0.018-0.106l0.159-0.494c0.035-0.106 0.088-0.326 0.088-0.424 0-0.071 0-0.097-0.009-0.15-0.035-0.221-0.185-0.379-0.371-0.494-0.106-0.062-0.247-0.079-0.379-0.079-0.088 0-0.882 0.247-1.015 0.282-0.3 0.097-0.362 0.062-0.662 0.274-0.071 0.053-0.124 0.124-0.185 0.194l-0.132 0.247c-0.053 0.115-0.097 0.371-0.115 0.424l-0.044 0.159c-0.018 0.106-0.018 0.035-0.044 0.132-0.026 0.071-0.009 0.097-0.035 0.168l-0.088 0.291c-0.018 0.062-0.009 0.088-0.026 0.15l-0.124 0.432c-0.018 0.097-0.071 0.203-0.132 0.274 0 0-0.009 0.009-0.009 0.009l-0.079 0.062c-0.168 0.088-0.397 0.097-0.565 0 0 0-0.009 0-0.009-0.009-0.009 0-0.009 0-0.009-0.009l-0.088-0.071c-0.15-0.168-0.097-0.344-0.071-0.529 0.018-0.071 0.018-0.053 0.044-0.106l0.432-1.579 0.274-0.388c0.15-0.15 0.344-0.247 0.538-0.318l0.247-0.071c0.044-0.009 0.062-0.009 0.115-0.026l0.529-0.168c0.062-0.018 0.009 0 0.062-0.018l0.865-0.282c0.018 0 0.044-0.009 0.062-0.009l0.82-0.256c0.071-0.018 0.062-0.035 0.115-0.053 0.062-0.009 0.053 0 0.115-0.018l0.097-0.044c0.009 0 0.018 0 0.018 0 0.088-0.018 0.088-0.044 0.168-0.062l0.176-0.053c0.044-0.018 0.088-0.018 0.132-0.035 0.062-0.018 0.018-0.018 0.106-0.035l0.591-0.185c0.071-0.018 0.062-0.009 0.124-0.035 0.185-0.071 0.344-0.035 0.582-0.035 0.062 0 0.062 0.018 0.106 0.035 0.079 0.026 0.15 0.035 0.229 0.071l0.273 0.168c0.212 0.159 0.291 0.326 0.424 0.547l0.362 0.715c0.026 0.035 0.009 0.009 0.035 0.053l0.406 0.794c0.018 0.035 0.026 0.044 0.044 0.088 0.018 0.035 0.035 0.071 0.053 0.106 0.026 0.053 0.035 0.053 0.053 0.106 0.009 0.009 0.018 0.026 0.018 0.026 0 0.009 0 0.009 0.009 0.018 0 0 0 0.009 0.009 0.009l0.432 0.723 0.45 0.274c0.371 0.115 1.888-0.035 2.347 0.071 0.097 0.018 0.159 0.071 0.212 0.141l0.044 0.062c0.088 0.185 0.071 0.353-0.062 0.512-0.044 0.044-0.124 0.132-0.194 0.132h-2.514c-0.079 0-0.291-0.097-0.371-0.141l-0.159-0.106c0 0-0.018-0.009-0.026-0.018l-0.018-0.018c0 0-0.053-0.044-0.053-0.044l-0.062-0.062c-0.247-0.265-0.291-0.6-0.635-0.82l-0.194-0.097c-0.009-0.009-0.018-0.009-0.018-0.009-0.009 0-0.009 0-0.018 0l-0.044-0.018c-0.15-0.062-0.291-0.044-0.459-0.044-0.106 0-0.238 0.062-0.326 0.106l-0.141 0.088c0 0-0.009 0.009-0.009 0.009l-0.044 0.035c-0.141 0.115-0.265 0.282-0.326 0.45l-0.088 0.371c-0.018 0.124-0.026 0.062-0.053 0.176l-0.062 0.371 0.044 0.256c0.018 0.053 0.009 0.062 0.026 0.097l0.071 0.15c0.018 0.035 0.018 0.035 0.044 0.079l0.106 0.229c0 0 0.009 0.009 0.009 0.009 0 0.009 0 0.018 0.009 0.018l0.935 1.923c0 0 0 0.018 0.009 0.026 0 0.009 0 0.009 0 0.018l0.565 1.147c0.053 0.115 0.097 0.212 0.15 0.309l0.476 0.971c0 0.018 0.018 0.035 0.018 0.035l0.079 0.168c0.097 0.194 0.176 0.397 0.282 0.591 0.026 0.035 0.009 0 0.026 0.035 0 0.009 0 0.009 0.009 0.018l0.168 0.353c0.009 0.026 0.018 0.044 0.035 0.079l0.291 0.6c0.018 0.035 0.026 0.053 0.044 0.079 0.009 0.018 0.009 0.026 0.018 0.044s0.009 0.026 0.018 0.044l0.212 0.45c0.062 0.159 0.035 0.353-0.044 0.503 0 0.009 0 0.018-0.009 0.018l-0.124 0.15c0 0.009-0.009 0.009-0.009 0.009 0 0.009-0.009 0.009-0.009 0.009l-0.168 0.097c-0.026 0.018-0.053 0.035-0.062 0.035-0.256 0.088-0.573-0.026-0.715-0.247 0 0-0.009-0.009-0.009-0.009s-0.009-0.009-0.009-0.009l-0.079-0.159c-0.026-0.053-0.044-0.079-0.071-0.132-0.009-0.035-0.009-0.035-0.018-0.062l-0.697-1.447c-0.009-0.026-0.009-0.018-0.026-0.053l-0.009-0.026c0-0.009 0-0.009 0-0.018l-0.026-0.035c0-0.009 0-0.009-0.009-0.018l-1.473-3.114c0-0.009-0.009-0.018-0.018-0.026l-0.009-0.026c-0.009 0-0.009-0.009-0.009-0.009l-0.159-0.344c-0.009-0.035-0.044-0.088-0.062-0.132l-0.079-0.124c-0.071-0.106-0.159-0.194-0.265-0.256 0-0.009 0-0.009-0.009-0.009l-0.247-0.132c-0.247-0.097-0.609-0.062-0.838 0.062l-0.291 0.221c-0.035 0.035-0.026 0.026-0.053 0.071-0.035 0.044-0.062 0.079-0.088 0.132l-0.168 0.468c-0.035 0.079-0.026 0.106-0.044 0.176l-0.247 0.838c-0.018 0.106-0.035 0.053-0.053 0.141-0.009 0.035 0 0.053-0.009 0.088l-0.106 0.318c-0.018 0.044-0.009 0.062-0.018 0.106-0.009 0.062-0.035 0.071-0.053 0.15-0.009 0.044 0 0.035-0.009 0.079l-0.15 0.415-0.168 0.265c-0.009 0.009-0.009 0.009-0.009 0.018l-0.176 0.168c-0.15 0.141-0.441 0.265-0.644 0.265-0.432 0-3.458 0.035-3.617-0.018-0.097-0.026-0.221-0.097-0.3-0.176-0.132-0.141-0.238-0.406-0.176-0.6l0.053-0.168c0 0 0-0.009 0.009-0.009 0.044-0.106 0.106-0.176 0.194-0.247 0.203-0.15 0.406-0.141 0.679-0.141h2.179c0.221 0 0.388 0 0.6-0.097 0 0 0.009-0.009 0.009-0.009l0.044-0.018c0 0 0.009 0 0.009 0l0.326-0.282c0 0 0.009 0 0.009-0.009 0 0 0.009-0.009 0.009-0.009 0.009 0 0.009-0.009 0.009-0.009l0.026-0.035c0-0.009 0.009-0.009 0.009-0.018l0.035-0.062c0.106-0.185 0.159-0.415 0.212-0.609l0.124-0.415c0.018-0.079 0.018-0.026 0.044-0.097l0.053-0.203c0.018-0.053 0.009-0.062 0.026-0.115 0.018-0.044 0.026-0.044 0.044-0.097l0.185-0.626c0.088-0.274 0.168-0.6-0.124-0.794-0.009 0-0.018 0-0.018-0.009-0.168-0.097-0.124-0.062-0.415-0.062-0.053 0-0.044 0.018-0.097 0.053l-0.159 0.15c-0.009 0.009-0.018 0.018-0.018 0.026l-0.062 0.15c-0.026 0.088-0.018 0.062-0.044 0.124l-0.097 0.344c-0.018 0.053-0.026 0.053-0.035 0.097-0.062 0.229-0.15 0.468-0.203 0.697l-0.247 0.776c-0.009 0.079 0.009 0.079-0.044 0.115-0.088 0.079-0.953 0.044-1.129 0.044-0.265 0-1.535-0.026-1.738 0.026-0.097 0.026-0.159 0-0.256 0.044-0.141 0.062-0.265 0.088-0.397 0.176l-0.212 0.15c-0.018 0.018-0.018 0.026-0.044 0.044-0.026 0.026-0.044 0.044-0.079 0.079-0.176 0.176-0.318 0.406-0.397 0.635-0.009 0.044-0.009 0.079-0.026 0.132-0.053 0.185-0.088 0.556-0.018 0.741l0.159 0.441c0.026 0.044 0.009 0.026 0.035 0.062l0.035 0.062c0.009 0.009 0.009 0.009 0.009 0.018l0.035 0.044c0 0 0.009 0.009 0.009 0.009l0.026 0.035c0.071 0.088 0.124 0.159 0.212 0.229 0.044 0.035 0.062 0.053 0.106 0.088l0.459 0.247 0.397 0.097c0.212 0.035 3.432 0.035 3.644 0 0.079-0.018 0.097-0.035 0.176-0.044 0.185-0.009 0.115-0.018 0.265-0.053 0.026-0.009 0.035-0.009 0.053-0.009 0.035-0.009 0.018-0.009 0.044-0.018 0.018-0.009 0.026-0.018 0.071-0.026 0.176-0.071 0.344-0.168 0.503-0.273 0.044-0.026 0.088-0.062 0.124-0.097l0.018-0.018c0.009-0.009 0.026-0.018 0.035-0.026 0.221-0.203 0.397-0.424 0.529-0.697 0.062-0.124 0.159-0.344 0.176-0.476l0.141-0.512c0.097-0.229 0.168-0.618 0.247-0.856 0.018-0.053 0.009-0.009 0.035-0.071 0.018-0.053 0-0.035 0.018-0.106 0.018-0.106 0.035-0.053 0.053-0.159l0.097-0.344c0.062-0.15-0.018-0.256 0.185-0.256 0.009 0.106 0.009 0.035 0.053 0.115l0.415 0.882c0 0 0.009 0.009 0.009 0.009 0.018 0.035 0 0.009 0.026 0.053 0.009 0.035 0 0.026 0.018 0.062l0.282 0.582c0 0 0 0.009 0.009 0.009l0.106 0.247c0.009 0 0.009 0.009 0.009 0.018 0 0 0.009 0.009 0.009 0.009l0.273 0.582c0.026 0.053 0.035 0.062 0.062 0.124l0.344 0.715c0.009 0.018 0.009 0.035 0.018 0.053l0.229 0.476c0 0.009 0 0.009 0.009 0.018l0.185 0.388c0 0.009 0 0.009 0 0.018l0.485 1.015c0.079 0.159 0.15 0.326 0.265 0.459l0.018 0.018c0 0 0 0.009 0.009 0.009l0.088 0.106c0.15 0.176 0.45 0.353 0.671 0.415 0.071 0.018 0.009 0 0.062 0.018 0.088 0.044 0.168 0.026 0.273 0.053 0.194 0.035 0.309 0 0.512-0.018 0.088-0.009 0.071-0.026 0.15-0.044 0.035-0.018 0.044-0.009 0.079-0.026l0.212-0.097c0.062-0.035 0.088-0.053 0.141-0.079 0.282-0.176 0.538-0.503 0.626-0.812l0.062-0.168c0.044-0.168 0.035-0.573 0-0.741-0.009-0.053-0.035-0.079-0.053-0.132l-0.229-0.547c-0.018-0.026-0.018-0.026-0.035-0.062l-0.291-0.591c-0.018-0.035-0.009-0.026-0.026-0.053l-0.962-1.994c-0.018-0.018-0.009-0.018-0.018-0.035-0.018-0.035-0.009-0.018-0.026-0.062l-0.291-0.582c0-0.009-0.009-0.009-0.009-0.018l-0.159-0.318c0-0.009 0-0.009-0.009-0.018l-0.044-0.088c0-0.009 0-0.009-0.009-0.018l-0.371-0.776c-0.009-0.026-0.026-0.044-0.035-0.071l-0.124-0.256c0-0.009-0.009-0.009-0.009-0.018l-0.291-0.6c0-0.009 0-0.009-0.009-0.018l-0.062-0.132c0 0-0.009-0.009-0.009-0.009l-0.379-0.785c-0.053-0.106-0.168-0.291-0.168-0.406 0.009-0.141 0.053-0.194 0.062-0.309 0.009-0.106 0.018-0.238 0.106-0.3 0.062 0.018 0.079 0.053 0.115 0.106l0.432 0.626c0.062 0.079 0.159 0.141 0.238 0.203 0.035 0.026 0.071 0.062 0.106 0.088 0.026 0.018 0.044 0.018 0.062 0.035 0.035 0.018 0.035 0.026 0.079 0.053 0.009 0.009 0.044 0.026 0.062 0.035l0.15 0.071c0.035 0.009 0 0 0.044 0.018l0.106 0.044c0.115 0.053 0.521 0.141 0.644 0.141h2.356c0.168 0 0.397-0.097 0.547-0.168l0.141-0.079c0.009 0 0.009-0.009 0.018-0.009l0.379-0.379c0.088-0.115 0.141-0.265 0.194-0.406 0.079-0.221 0.088-0.556 0.009-0.794-0.009-0.044 0 0-0.018-0.053-0.088-0.229-0.203-0.441-0.379-0.609l-0.238-0.194c-0.035-0.018-0.035-0.018-0.053-0.026-0.044-0.018-0.026-0.009-0.053-0.026-0.124-0.053-0.344-0.132-0.476-0.15-0.079-0.009-0.203 0-0.291 0h-1.835c-0.026-0.079-0.106-0.194-0.15-0.291l-0.124-0.238c0-0.009-0.009-0.009-0.009-0.018l-1.085-2.082c-0.106-0.168-0.212-0.326-0.353-0.468l-0.565-0.415c-0.044-0.018-0.026-0.018-0.062-0.035-0.026-0.009-0.026-0.009-0.044-0.018-0.185-0.079-0.353-0.15-0.565-0.176s-0.424-0.079-0.635-0.035c-0.053 0.018-0.088 0.018-0.159 0.026-0.141 0.018-0.309 0.053-0.45 0.106l-0.291 0.088c-0.097 0.018-0.062 0.035-0.15 0.053-0.079 0.018-0.062 0.009-0.141 0.044l-0.132 0.035c-0.088 0.035-0.026 0.026-0.141 0.044l-0.291 0.088c-0.053 0.026 0 0.009-0.071 0.035l-0.212 0.062c-0.079 0.026-0.079 0.018-0.15 0.044l-0.406 0.132c-0.079 0.026-0.079 0.009-0.159 0.044l-1.562 0.494c-0.044 0.018-0.018 0.018-0.071 0.035l-0.176 0.044c-0.018 0.009 0.009 0-0.044 0.018l-0.415 0.141c-0.079 0.018-0.062 0.018-0.124 0.053-0.053 0.018-0.026 0.009-0.071 0.035l-0.397 0.265-0.459 0.538c-0.141 0.238-0.168 0.353-0.256 0.6l-0.238 0.9c-0.026 0.071-0.035 0.044-0.053 0.15l-0.15 0.6c-0.035 0.097-0.053 0.221-0.053 0.335z"></path>
<path d="M12.024 24.060c0 0.15 0 0.176 0.071 0.309 0.009 0.009 0.018 0.026 0.026 0.035 0 0.009 0 0.009 0 0.018l0.062 0.097c0.053 0.106 0.115 0.203 0.176 0.3l0.803 1.35c0.026 0.053 0.062 0.097 0.097 0.15 0.035 0.062 0.053 0.097 0.088 0.15 0.035 0.071 0.079 0.115 0.053 0.194s-0.274 0.45-0.344 0.565c-0.009 0.009-0.018 0.018-0.026 0.035s-0.009 0.018-0.018 0.035c-0.018 0.035 0 0-0.026 0.035l-0.132 0.229c-0.018 0.018-0.009 0.018-0.026 0.035l-0.318 0.521c-0.018 0.026 0 0-0.018 0.035l-0.494 0.829c-0.053 0.115-0.018 0.176 0.026 0.265 0.071 0.159 0.247 0.291 0.406 0.335 0.168 0.053 0.238 0.097 0.415 0.009 0.124-0.062 0.176-0.176 0.238-0.282l0.459-0.803c0.018-0.026 0.009-0.018 0.018-0.035l0.6-1.023c0.053 0.044 0.062 0.097 0.097 0.15l0.194 0.326c0 0.009 0 0.009 0 0.018l0.379 0.662c0.035 0.053 0.044 0.088 0.079 0.141l0.256 0.441c0.062 0.115 0.124 0.247 0.212 0.344 0 0.009 0.009 0.009 0.009 0.009 0.088 0.088 0.238 0.132 0.353 0.088 0.062-0.026 0.044-0.018 0.124-0.035 0.229-0.053 0.459-0.256 0.459-0.503 0-0.079-0.018-0.159-0.044-0.212l-0.591-0.971c-0.026-0.044-0.018-0.035-0.044-0.071l-0.168-0.265c0 0 0-0.009 0-0.009l-0.476-0.768c-0.097-0.159-0.106-0.159-0.018-0.326l0.194-0.335c0.018-0.018 0.018-0.026 0.026-0.044l0.556-0.935c0.018-0.026 0.009-0.009 0.026-0.035 0-0.009 0-0.009 0.009-0.018l0.212-0.362c0.009 0 0.009-0.009 0.009-0.009l0.079-0.141c0 0 0.009-0.009 0.009-0.009 0-0.009 0.009-0.009 0.009-0.018l0.097-0.159c0.009-0.018 0.009-0.018 0.018-0.035 0.018-0.026 0.009-0.026 0.018-0.044 0.009-0.009 0.009-0.009 0.009-0.018 0.044-0.097 0.053-0.132 0.053-0.247 0-0.062-0.071-0.15-0.115-0.194 0 0 0-0.009-0.009-0.009l-0.115-0.106c-0.194-0.132-0.591-0.221-0.768 0l-0.309 0.529c-0.018 0.026-0.018 0.018-0.026 0.035l-0.582 1.059c-0.009 0.035 0 0-0.018 0.035l-0.079 0.141c-0.044 0.079-0.071 0.176-0.159 0.203-0.009-0.124-0.115-0.247-0.185-0.362-0.009-0.026-0.026-0.044-0.035-0.071-0.018-0.035-0.026-0.044-0.035-0.071l-0.176-0.309c0 0 0-0.009-0.009-0.009l-0.079-0.141c0-0.018-0.018-0.035-0.018-0.035l-0.053-0.106c-0.026-0.035-0.009 0-0.026-0.035l-0.353-0.635c-0.115-0.185-0.168-0.362-0.45-0.362-0.159 0-0.309 0.035-0.432 0.124-0.079 0.053-0.247 0.194-0.247 0.318z"></path>
<path d="M16.903 4.941c0-0.212 0.035-0.406 0.097-0.591l0.15-0.291c0.124-0.176 0.282-0.335 0.468-0.45l0.291-0.15c0.265-0.115 0.706-0.141 0.962-0.044 0.018 0.009 0.053 0.018 0.071 0.026l0.132 0.044c0.026 0.009 0.035 0.018 0.062 0.026 0.026 0.018 0.026 0.018 0.062 0.035 0.018 0.009 0.035 0.018 0.053 0.026 0 0 0.009 0 0.009 0.009l0.159 0.106c0.018 0.009 0.018 0.018 0.044 0.035l0.212 0.221c0.035 0.035 0.062 0.071 0.079 0.106l0.265 0.635v0.503l-0.062 0.194c-0.018 0.106-0.079 0.203-0.124 0.3-0.159 0.318-0.494 0.591-0.829 0.706-0.062 0.026-0.071 0.009-0.141 0.044-0.088 0.035-0.044 0.026-0.168 0.035-0.141 0-0.185 0.026-0.344 0-0.071-0.009-0.106 0-0.176 0-0.106-0.009-0.106-0.044-0.203-0.062l-0.212-0.088c-0.035-0.009-0.071-0.035-0.115-0.062l-0.309-0.247-0.326-0.494-0.071-0.229c-0.018-0.079-0.035-0.256-0.035-0.344zM15.897 4.729c0 0.45-0.026 0.291 0.053 0.626 0.035 0.124-0.009 0.124 0.044 0.256 0.018 0.035 0.009 0 0.018 0.035s0.009 0.044 0.018 0.071c0.035 0.15 0.15 0.371 0.229 0.503 0.079 0.15 0.185 0.282 0.3 0.406l0.168 0.168c0.018 0.018 0.018 0.018 0.026 0.026l0.679 0.441 0.326 0.115c0.106 0.018 0.141 0.062 0.238 0.062l0.662 0.044c0.088 0 0.062-0.035 0.176-0.044 0.106 0 0.124 0 0.212-0.026 0.071-0.026 0.115-0.026 0.176-0.044l0.785-0.415c0 0 0-0.009 0.009-0.009 0.221-0.185 0.441-0.388 0.591-0.644 0 0 0.009-0.009 0.009-0.009l0.018-0.026c0.018-0.035 0-0.009 0.018-0.044 0.009-0.009 0.018-0.018 0.026-0.035l0.3-0.812c0.018-0.088 0.009-0.141 0.009-0.229 0.009-0.097 0.026-0.097 0.026-0.203l-0.097-0.723c-0.053-0.247-0.212-0.556-0.362-0.75-0.124-0.176-0.291-0.379-0.476-0.521-0.221-0.176-0.476-0.344-0.741-0.423-0.071-0.018-0.035-0.009-0.088-0.035-0.062-0.026-0.018-0.009-0.097-0.018-0.124-0.026-0.115-0.053-0.273-0.062-0.221-0.009-0.194-0.079-0.644-0.035-0.088 0-0.088 0.026-0.176 0.035-0.124 0.009-0.106-0.018-0.212 0.026l-0.238 0.079c-0.009 0-0.009 0.009-0.018 0.009l-0.662 0.353c0 0-0.009 0.009-0.009 0.009l-0.088 0.062c0 0 0 0.009-0.009 0.009l-0.45 0.485c0 0.009 0 0.009-0.009 0.018 0 0 0 0.009 0 0.009l-0.397 0.847-0.071 0.415z"></path>
<path d="M8.089 23.98v5.311c0 0.168 0.274 0.3 0.362 0.3h3.035c0.203 0 0.318-0.326 0.318-0.424 0-0.141-0.018-0.282-0.097-0.397-0.053-0.071-0.132-0.132-0.238-0.141-0.353-0.018-1.473 0-1.941 0-0.176 0-0.335 0.035-0.335-0.062v-1.456c0-0.097 0.238-0.062 0.441-0.062 0.194 0 0.82 0.044 0.944-0.062l0.106-0.124c0.009-0.018 0.018-0.062 0.035-0.088 0.071-0.168 0.026-0.238-0.026-0.388-0.106-0.256-0.309-0.194-0.565-0.194h-0.741c-0.088 0-0.194 0.026-0.194-0.062v-1.456c0-0.097 0.15-0.062 0.318-0.062h1.95c0.115-0.018 0.194-0.053 0.256-0.15 0.018-0.044 0.035-0.106 0.053-0.15 0.071-0.185 0.044-0.229-0.009-0.388-0.044-0.132-0.062-0.176-0.194-0.247-0.053-0.035-0.053-0.044-0.115-0.044h-2.938c-0.071 0-0.424 0.088-0.424 0.344z"></path>
<path d="M18.518 23.998c0 0.212-0.035 0.406 0.15 0.565 0.035 0.044 0.124 0.097 0.185 0.097h1.165v4.588c0 0.071 0.018 0.088 0.044 0.132 0.044 0.062 0.026 0.053 0.088 0.097 0.062 0.053 0.053 0.026 0.132 0.062 0.168 0.071 0.009 0.053 0.415 0.053 0.088 0 0.106-0.026 0.194-0.062 0.053-0.018 0.018 0 0.071-0.035l0.106-0.097c0 0 0 0 0.009-0.009l0.018-0.018c0.018-0.044 0.018-0.009 0.018-0.079v-4.632h1.156c0.159 0 0.344-0.212 0.344-0.344 0-0.256 0.026-0.326-0.053-0.468 0-0.009 0-0.009 0-0.018-0.062-0.106-0.079-0.115-0.15-0.15-0.044-0.018-0.079-0.044-0.141-0.044h-3.432c-0.062 0 0.009-0.009-0.115 0.044-0.115 0.062-0.115 0.097-0.159 0.185-0.026 0.053-0.044 0.062-0.044 0.132z"></path>
<path d="M16.877 24.113c0 0.609-0.026 4.985 0.018 5.197 0.018 0.053 0.018 0.079 0.079 0.141 0.221 0.212 0.829 0.203 0.979-0.106 0.035-0.071 0.026-0.097 0.026-0.194v-4.297c0-0.282 0.009-0.582 0-0.856 0-0.053 0-0.044-0.018-0.088-0.053-0.159-0.203-0.203-0.309-0.229-0.229-0.071-0.247-0.053-0.468 0-0.124 0.035-0.15 0.035-0.238 0.132-0.035 0.044-0.026 0.026-0.044 0.071-0.018 0.053-0.026 0.168-0.026 0.229z"></path>
<path stroke-linejoin="miter" stroke-linecap="butt" stroke-miterlimit="4" stroke-width="1.2612" d="M1.199 0.979h5.955v-0.953h-5.955c-0.644 0-1.173 0.529-1.173 1.173v29.6c0 0.644 0.529 1.173 1.173 1.173h29.574c0.653 0 1.182-0.529 1.182-1.173v-7.79h-0.953v7.79c0 0.124-0.097 0.221-0.229 0.221h-29.574c-0.124 0-0.221-0.097-0.221-0.221v-29.6c0-0.124 0.097-0.221 0.221-0.221zM31.955 21.492v-20.292c0-0.644-0.529-1.173-1.182-1.173h-22.030v0.953h22.030c0.132 0 0.229 0.097 0.229 0.221v20.292h0.953z"></path>
</symbol>
</defs>
</svg>
